<?xml version="1.0" encoding="UTF-8"?>
<svg id="Layer_1" xmlns="http://www.w3.org/2000/svg" version="1.1" viewBox="0 0 40 25">
  <!-- Generator: Adobe Illustrator 29.1.0, SVG Export Plug-In . SVG Version: 2.1.0 Build 142)  -->
  <defs>
    <style>
      .st0 {
        fill: #fff;
      }

      .st1 {
        fill: #3189c9;
      }

      .st1, .st2 {
        stroke: #fff;
        stroke-miterlimit: 10;
        stroke-width: .25px;
      }

      .st2 {
        fill: #85c441;
      }
    </style>
  </defs>
  <path class="st2" d="M15.27,11.73c0,6.26,5.08,11.34,11.34,11.34,2.28,0,4.39-.67,6.17-1.82l6.72,1.6-2.68-6.18c.73-1.49,1.13-3.17,1.13-4.95,0-6.26-5.08-11.34-11.34-11.34s-11.34,5.08-11.34,11.34Z"/>
  <path class="st0" d="M26.16,13.61h-4.53c-1.06,0-1.89-.83-1.89-1.89h0c0-1.06.83-1.89,1.89-1.89h4.53c1.06,0,1.89.83,1.89,1.89h0c0,1.06-.83,1.89-1.89,1.89Z"/>
  <circle class="st0" cx="31.18" cy="11.73" r="1.89"/>
  <path class="st1" d="M22.1,16.11v.02c0,.27-.05.52-.15.75-.06.12-.12.24-.19.36-.92,1.65-2.24,3.05-3.83,4.07-1.76,1.12-3.85,1.77-6.09,1.77-1.77,0-3.45-.41-4.95-1.13l-6.18,2.68,1.6-6.72c-1.15-1.78-1.83-3.89-1.83-6.17C.5,5.46,5.58.39,11.84.39c2.24,0,4.33.65,6.09,1.77-.99.9-1.84,1.95-2.51,3.11-1.06-.59-2.28-.92-3.58-.92-4.08,0-7.39,3.31-7.39,7.39s3.31,7.39,7.39,7.39c1.3,0,2.52-.33,3.58-.92,1.19-.66,2.19-1.65,2.86-2.83.06-.11.13-.23.18-.35.35-.53.96-.88,1.64-.88h.02c1.09,0,1.98.89,1.98,1.98Z"/>
</svg>