<?xml version="1.0" encoding="UTF-8"?>
<svg id="Layer_1" xmlns="http://www.w3.org/2000/svg" version="1.1" viewBox="0 0 90 30">
  <!-- Generator: Adobe Illustrator 29.1.0, SVG Export Plug-In . SVG Version: 2.1.0 Build 142)  -->
  <defs>
    <style>
      .st0 {
        isolation: isolate;
      }

      .st1 {
        fill: #85c441;
      }

      .st2 {
        fill: #3189c9;
      }
    </style>
  </defs>
  <g class="st0">
    <path class="st1" d="M6.1,28c0,.3,0,.5-.3.7-.2.2-.4.3-.7.3H1.9c-.3,0-.5,0-.7-.3-.2-.2-.3-.4-.3-.7v-5.2c0-.3,0-.5.3-.7.2-.2.4-.3.7-.3h2.3v-1.8h-1.3v1.5H.9v-2.4c0-.3,0-.5.3-.7.2-.2.4-.3.7-.3h3.2c.3,0,.5,0,.7.3.2.2.3.4.3.7v8.9ZM4.2,23.8h-1.3v3.3h1.3v-3.3Z"/>
    <path class="st1" d="M13.1,28c0,.3,0,.5-.3.7-.2.2-.4.3-.7.3h-3.3c-.3,0-.5,0-.7-.3-.2-.2-.3-.4-.3-.7v-2.4h1.9v1.5h1.3v-3.3h-2.3c-.3,0-.5,0-.7-.3-.2-.2-.3-.4-.3-.7v-3.7c0-.3,0-.5.3-.7.2-.2.4-.3.7-.3h3.3c.3,0,.5,0,.7.3.2.2.3.4.3.7v2.4h-1.9v-1.5h-1.3v1.8h2.3c.3,0,.5,0,.7.3.2.2.3.4.3.7v5.2Z"/>
    <path class="st1" d="M20.1,23.8c0,.3,0,.5-.3.7s-.4.3-.7.3h-.6c.3.2.6.5.9.7.5.4.7.8.7,1.1v2.4h-1.9v-2l-1.3-1.1v3.1h-1.9v-14h1.9v7.9h1.3v-4.7h1.9v5.6Z"/>
    <path class="st2" d="M38.8,20v5.2h1.2v3.8h-3.1c-.5,0-1-.2-1.3-.6-.4-.4-.6-.8-.6-1.3v-4.1c0-.5-.2-1-.6-1.3-.4-.4-.8-.6-1.3-.6h-.7v8h-3.8V1h3.8v13.2h2.6V1h3.8v15.1c0,.5-.2,1-.6,1.3-.4.4-.8.6-1.3.6.5,0,1,.2,1.4.6.4.4.6.8.6,1.4Z"/>
    <path class="st2" d="M46.4,29h-3.8V1h3.8v28Z"/>
    <path class="st2" d="M60.9,27.1c0,.5-.2,1-.6,1.3-.4.4-.8.6-1.3.6h-6.5c-.5,0-1-.2-1.3-.6-.4-.4-.6-.8-.6-1.3v-10.4c0-.5.2-1,.6-1.3.4-.4.8-.6,1.3-.6h4.6v-3.5h-2.6v2.9h-3.8v-4.8c0-.5.2-1,.6-1.3s.8-.6,1.3-.6h6.5c.5,0,1,.2,1.3.6s.6.8.6,1.3v17.8ZM57.1,18.6h-2.6v6.5h2.6v-6.5Z"/>
    <path class="st2" d="M75,14.1h-3.8v-2.9h-2.6v17.8h-3.8V9.3c0-.5.2-1,.6-1.3s.8-.6,1.3-.6h6.5c.5,0,1,.2,1.3.6s.6.8.6,1.3v4.8Z"/>
    <path class="st2" d="M89.1,27.1c0,.5-.2,1-.6,1.3-.4.4-.8.6-1.3.6h-6.5c-.5,0-1-.2-1.3-.6s-.6-.8-.6-1.3v-10.4c0-.5.2-1,.6-1.3.4-.4.8-.6,1.3-.6h4.6v-3.5h-2.6v2.9h-3.8v-4.8c0-.5.2-1,.6-1.3.4-.4.8-.6,1.3-.6h6.5c.5,0,1,.2,1.3.6.4.4.6.8.6,1.3v17.8ZM85.2,18.6h-2.6v6.5h2.6v-6.5Z"/>
  </g>
</svg>