<?xml version="1.0" encoding="UTF-8"?>
<svg id="Layer_1" xmlns="http://www.w3.org/2000/svg" version="1.1" viewBox="0 0 192 192">
  <!-- Generator: Adobe Illustrator 29.1.0, SVG Export Plug-In . SVG Version: 2.1.0 Build 142)  -->
  <defs>
    <style>
      .st0 {
        fill: #fff;
      }

      .st0, .st1, .st2 {
        stroke: #fff;
        stroke-miterlimit: 10;
        stroke-width: 4px;
      }

      .st1 {
        fill: #85c441;
      }

      .st2 {
        fill: #3189c9;
      }
    </style>
  </defs>
  <path class="st1" d="M74.2,92.4c0,28.9,23.4,52.3,52.3,52.3s20.3-3.1,28.5-8.4l31,7.4-12.4-28.5c3.3-6.9,5.2-14.6,5.2-22.8,0-28.9-23.4-52.3-52.3-52.3s-52.3,23.4-52.3,52.3Z"/>
  <path class="st0" d="M124.4,101.1h-20.9c-4.9,0-8.7-3.8-8.7-8.7h0c0-4.9,3.8-8.7,8.7-8.7h20.9c4.9,0,8.7,3.8,8.7,8.7h0c0,4.9-3.8,8.7-8.7,8.7Z"/>
  <circle class="st0" cx="147.6" cy="92.4" r="8.7"/>
  <path class="st2" d="M105.7,112.7h0c0,1.3-.2,2.5-.7,3.5-.3.6-.6,1.1-.9,1.6-4.2,7.6-10.3,14.1-17.7,18.8-8.1,5.2-17.7,8.2-28.1,8.2s-15.9-1.9-22.8-5.2l-28.5,12.4,7.4-31c-5.3-8.2-8.4-18-8.4-28.5,0-28.9,23.4-52.3,52.3-52.3s20,3,28.1,8.2c-4.6,4.1-8.5,9-11.6,14.3-4.9-2.7-10.5-4.3-16.5-4.3-18.8,0-34.1,15.3-34.1,34.1s15.3,34.1,34.1,34.1,11.6-1.5,16.5-4.3c5.5-3.1,10.1-7.6,13.2-13.1.3-.5.6-1.1.9-1.6,1.6-2.4,4.4-4.1,7.6-4.1h0c5,0,9.1,4.1,9.1,9.1Z"/>
</svg>